<svg width="170" height="35" viewBox="0 0 170 35" fill="none" xmlns="http://www.w3.org/2000/svg">
<path d="M54.776 27.964C52.28 27.964 50.36 27.532 49.016 26.668C47.672 25.78 47 24.484 47 22.78C47 21.916 47.288 21.208 47.864 20.656C48.464 20.08 49.232 19.792 50.168 19.792C50.792 19.816 51.224 19.972 51.464 20.26C51.728 20.548 51.86 20.764 51.86 20.908C51.86 20.956 51.752 21.04 51.536 21.16C51.32 21.256 51.104 21.448 50.888 21.736C50.672 22 50.564 22.42 50.564 22.996C50.564 24.076 50.9 24.94 51.572 25.588C52.244 26.212 53.312 26.524 54.776 26.524C55.808 26.524 56.684 26.332 57.404 25.948C58.148 25.54 58.712 25.024 59.096 24.4C59.48 23.752 59.672 23.092 59.672 22.42C59.672 21.412 59.384 20.584 58.808 19.936C58.232 19.288 57.476 18.736 56.54 18.28C55.628 17.8 54.656 17.344 53.624 16.912C52.592 16.48 51.608 15.988 50.672 15.436C49.76 14.884 49.004 14.2 48.404 13.384C47.804 12.544 47.492 11.5 47.468 10.252C47.444 8.74 47.768 7.516 48.44 6.58C49.112 5.62 50.048 4.924 51.248 4.492C52.448 4.036 53.78 3.808 55.244 3.808C56.324 3.808 57.38 3.964 58.412 4.276C59.468 4.588 60.332 5.08 61.004 5.752C61.7 6.4 62.048 7.264 62.048 8.344C62.048 9.208 61.748 9.928 61.148 10.504C60.572 11.056 59.816 11.332 58.88 11.332C58.256 11.284 57.812 11.128 57.548 10.864C57.308 10.576 57.188 10.36 57.188 10.216C57.188 10.144 57.332 10.06 57.62 9.964C57.908 9.844 58.196 9.652 58.484 9.388C58.772 9.1 58.916 8.68 58.916 8.128C58.916 7.216 58.568 6.52 57.872 6.04C57.176 5.536 56.312 5.284 55.28 5.284C53.72 5.284 52.58 5.656 51.86 6.4C51.164 7.12 50.816 7.936 50.816 8.848C50.816 9.736 51.056 10.456 51.536 11.008C52.016 11.56 52.736 12.1 53.696 12.628C54.776 13.204 55.868 13.744 56.972 14.248C58.076 14.728 59.096 15.268 60.032 15.868C60.992 16.468 61.76 17.224 62.336 18.136C62.912 19.024 63.2 20.176 63.2 21.592C63.2 22.816 62.816 23.908 62.048 24.868C61.304 25.828 60.296 26.584 59.024 27.136C57.752 27.688 56.336 27.964 54.776 27.964Z" fill="white"/>
<path d="M73.001 27.676C71.369 27.676 70.073 27.184 69.113 26.2C68.153 25.216 67.673 23.92 67.673 22.312V15.652C67.673 15.22 67.649 14.824 67.601 14.464C67.577 14.08 67.445 13.78 67.205 13.564C66.965 13.324 66.509 13.204 65.837 13.204C65.621 13.204 65.417 13.18 65.225 13.132C65.057 13.06 64.973 12.844 64.973 12.484C64.973 12.124 65.165 11.908 65.549 11.836C66.653 11.668 67.493 11.5 68.069 11.332C68.669 11.164 69.125 11.02 69.437 10.9C69.749 10.78 70.025 10.708 70.265 10.684C70.457 10.66 70.613 10.696 70.733 10.792C70.877 10.888 70.949 11.08 70.949 11.368V22.276C70.949 23.068 71.117 23.716 71.453 24.22C71.813 24.724 72.257 25.096 72.785 25.336C73.313 25.576 73.853 25.696 74.405 25.696C75.245 25.696 75.977 25.552 76.601 25.264C77.225 24.952 77.729 24.604 78.113 24.22C78.497 23.812 78.749 23.476 78.869 23.212V15.652C78.869 15.22 78.845 14.824 78.797 14.464C78.773 14.08 78.641 13.78 78.401 13.564C78.161 13.324 77.705 13.204 77.033 13.204C76.817 13.204 76.613 13.18 76.421 13.132C76.253 13.06 76.169 12.844 76.169 12.484C76.169 12.124 76.361 11.908 76.745 11.836C77.849 11.668 78.689 11.5 79.265 11.332C79.865 11.164 80.321 11.02 80.633 10.9C80.945 10.78 81.221 10.708 81.461 10.684C81.653 10.66 81.809 10.696 81.929 10.792C82.073 10.888 82.145 11.08 82.145 11.368V23.824C82.145 25.24 83.093 25.948 84.989 25.948C85.253 25.948 85.421 26.02 85.493 26.164C85.565 26.308 85.601 26.464 85.601 26.632C85.601 26.968 85.397 27.172 84.989 27.244L79.193 27.64C79.025 27.64 78.929 27.568 78.905 27.424C78.881 27.28 78.869 27.112 78.869 26.92V24.904H78.797C78.341 25.336 77.849 25.768 77.321 26.2C76.817 26.632 76.217 26.98 75.521 27.244C74.849 27.532 74.009 27.676 73.001 27.676Z" fill="white"/>
<path d="M87.5703 27.352C87.4023 27.352 87.2583 27.28 87.1383 27.136C87.0423 26.968 86.9943 26.8 86.9943 26.632C87.0423 26.272 87.1383 26.08 87.2823 26.056C87.4263 26.008 87.6183 25.984 87.8583 25.984C88.5303 25.984 88.9863 25.876 89.2263 25.66C89.4663 25.42 89.5983 25.108 89.6223 24.724C89.6703 24.34 89.6943 23.944 89.6943 23.536V15.292C89.6943 14.86 89.6703 14.464 89.6223 14.104C89.5983 13.72 89.4663 13.42 89.2263 13.204C88.9863 12.964 88.5303 12.844 87.8583 12.844C87.6423 12.844 87.4383 12.82 87.2463 12.772C87.0783 12.7 86.9943 12.484 86.9943 12.124C86.9943 11.764 87.1863 11.548 87.5703 11.476C88.6743 11.308 89.5143 11.14 90.0903 10.972C90.6903 10.804 91.1343 10.66 91.4223 10.54C91.7343 10.42 92.0103 10.348 92.2503 10.324C92.4423 10.3 92.5983 10.336 92.7183 10.432C92.8623 10.528 92.9343 10.72 92.9343 11.008V13.24H93.0423C93.8583 12.448 94.6983 11.8 95.5623 11.296C96.4263 10.768 97.2183 10.504 97.9383 10.504C98.7783 10.504 99.4143 10.816 99.8463 11.44C100.302 12.064 100.53 12.724 100.53 13.42C100.53 14.02 100.338 14.608 99.9543 15.184C99.5703 15.736 98.9943 16.012 98.2263 16.012C97.8423 16.012 97.5303 15.94 97.2903 15.796C97.0743 15.628 96.9543 15.508 96.9303 15.436C96.9303 15.388 97.0383 15.244 97.2543 15.004C97.4943 14.764 97.6143 14.464 97.6143 14.104C97.6143 13.672 97.4943 13.324 97.2543 13.06C97.0383 12.796 96.7383 12.664 96.3543 12.664C95.9463 12.664 95.4183 12.868 94.7703 13.276C94.1463 13.684 93.5463 14.176 92.9703 14.752V23.536C92.9703 23.944 92.9823 24.34 93.0063 24.724C93.0543 25.108 93.1983 25.42 93.4383 25.66C93.7023 25.876 94.1703 25.984 94.8423 25.984C95.0583 25.984 95.2383 26.008 95.3823 26.056C95.5503 26.08 95.6463 26.272 95.6703 26.632C95.6703 26.8 95.6223 26.968 95.5263 27.136C95.4303 27.28 95.2863 27.352 95.0943 27.352C94.3983 27.304 93.7503 27.268 93.1503 27.244C92.5743 27.244 91.9623 27.244 91.3143 27.244C90.6663 27.244 90.0543 27.244 89.4783 27.244C88.9023 27.268 88.2663 27.304 87.5703 27.352Z" fill="white"/>
<path d="M103.187 27.352C102.995 27.352 102.851 27.28 102.755 27.136C102.659 26.968 102.611 26.8 102.611 26.632C102.635 26.272 102.719 26.08 102.863 26.056C103.007 26.008 103.199 25.984 103.439 25.984C104.111 25.984 104.567 25.876 104.807 25.66C105.071 25.42 105.215 25.108 105.239 24.724C105.263 24.34 105.275 23.944 105.275 23.536V12.34H102.863C102.671 12.34 102.515 12.268 102.395 12.124C102.299 11.956 102.251 11.788 102.251 11.62C102.275 11.236 102.359 11.032 102.503 11.008C102.671 10.96 102.875 10.936 103.115 10.936H105.275V9.424C105.275 7.816 105.527 6.388 106.031 5.14C106.535 3.892 107.279 2.896 108.263 2.152C109.271 1.408 110.495 1.024 111.935 1C112.679 1 113.399 1.144 114.095 1.432C114.791 1.72 115.367 2.128 115.823 2.656C116.279 3.16 116.507 3.784 116.507 4.528C116.507 5.2 116.303 5.824 115.895 6.4C115.487 6.952 114.899 7.228 114.131 7.228C113.627 7.228 113.231 7.096 112.943 6.832C112.679 6.568 112.547 6.388 112.547 6.292C112.547 6.22 112.643 6.112 112.835 5.968C113.051 5.8 113.255 5.56 113.447 5.248C113.663 4.936 113.771 4.552 113.771 4.096C113.771 3.568 113.567 3.124 113.159 2.764C112.775 2.38 112.283 2.188 111.683 2.188C110.891 2.188 110.279 2.428 109.847 2.908C109.415 3.388 109.115 3.988 108.947 4.708C108.779 5.428 108.671 6.16 108.623 6.904C108.599 7.648 108.587 8.272 108.587 8.776V10.936H112.115C112.355 10.936 112.559 10.96 112.727 11.008C112.895 11.032 112.991 11.236 113.015 11.62C113.015 11.788 112.955 11.956 112.835 12.124C112.739 12.268 112.595 12.34 112.403 12.34H108.587V23.536C108.587 24.232 108.635 24.76 108.731 25.12C108.851 25.48 109.091 25.72 109.451 25.84C109.835 25.936 110.399 25.984 111.143 25.984C111.383 25.984 111.575 26.008 111.719 26.056C111.863 26.08 111.947 26.272 111.971 26.632C111.971 26.8 111.923 26.968 111.827 27.136C111.755 27.28 111.623 27.352 111.431 27.352C110.735 27.304 109.967 27.268 109.127 27.244C108.287 27.244 107.555 27.244 106.931 27.244C106.283 27.244 105.671 27.244 105.095 27.244C104.519 27.268 103.883 27.304 103.187 27.352Z" fill="white"/>
<path d="M113.304 33.352C113.136 33.352 112.992 33.28 112.872 33.136C112.776 32.968 112.728 32.8 112.728 32.632C112.752 32.272 112.836 32.08 112.98 32.056C113.148 32.008 113.34 31.984 113.556 31.984C114.228 31.984 114.684 31.876 114.924 31.66C115.188 31.42 115.332 31.108 115.356 30.724C115.404 30.34 115.428 29.944 115.428 29.536V11.968C115.428 11.536 115.404 11.14 115.356 10.78C115.332 10.396 115.2 10.096 114.96 9.88C114.72 9.64 114.264 9.52 113.592 9.52C113.376 9.52 113.172 9.496 112.98 9.448C112.812 9.376 112.728 9.16 112.728 8.8C112.728 8.44 112.92 8.224 113.304 8.152C114.408 7.984 115.248 7.816 115.824 7.648C116.424 7.48 116.88 7.336 117.192 7.216C117.504 7.096 117.78 7.024 118.02 7C118.212 6.976 118.368 7.012 118.488 7.108C118.632 7.204 118.704 7.396 118.704 7.684V29.536C118.704 29.944 118.716 30.34 118.74 30.724C118.788 31.108 118.932 31.42 119.172 31.66C119.436 31.876 119.904 31.984 120.576 31.984C120.792 31.984 120.972 32.008 121.116 32.056C121.284 32.08 121.38 32.272 121.404 32.632C121.404 32.8 121.356 32.968 121.26 33.136C121.164 33.28 121.02 33.352 120.828 33.352C120.132 33.304 119.484 33.268 118.884 33.244C118.308 33.244 117.696 33.244 117.048 33.244C116.4 33.244 115.788 33.244 115.212 33.244C114.636 33.268 114 33.304 113.304 33.352Z" fill="white"/>
<path d="M131.819 27.676C130.139 27.676 128.663 27.28 127.391 26.488C126.143 25.696 125.171 24.664 124.475 23.392C123.779 22.12 123.431 20.764 123.431 19.324C123.431 17.908 123.683 16.648 124.187 15.544C124.691 14.44 125.351 13.516 126.167 12.772C127.007 12.028 127.919 11.464 128.903 11.08C129.887 10.696 130.859 10.504 131.819 10.504C133.499 10.504 134.963 10.9 136.211 11.692C137.483 12.484 138.467 13.516 139.163 14.788C139.859 16.06 140.207 17.416 140.207 18.856C140.207 20.272 139.943 21.532 139.415 22.636C138.911 23.74 138.239 24.664 137.399 25.408C136.583 26.152 135.683 26.716 134.699 27.1C133.715 27.484 132.755 27.676 131.819 27.676ZM131.819 26.344C132.995 26.344 133.919 25.996 134.591 25.3C135.287 24.604 135.779 23.692 136.067 22.564C136.379 21.412 136.535 20.176 136.535 18.856C136.535 17.584 136.379 16.42 136.067 15.364C135.755 14.308 135.251 13.456 134.555 12.808C133.859 12.16 132.947 11.836 131.819 11.836C130.643 11.836 129.707 12.184 129.011 12.88C128.315 13.552 127.823 14.452 127.535 15.58C127.247 16.684 127.103 17.908 127.103 19.252C127.103 20.5 127.247 21.664 127.535 22.744C127.847 23.824 128.351 24.7 129.047 25.372C129.743 26.02 130.667 26.344 131.819 26.344Z" fill="white"/>
<path d="M149.223 27.604L144.615 14.824C144.231 13.936 143.859 13.312 143.499 12.952C143.139 12.568 142.599 12.328 141.879 12.232C141.567 12.184 141.351 12.136 141.231 12.088C141.135 12.04 141.075 11.86 141.051 11.548C141.027 11.14 141.135 10.924 141.375 10.9C141.639 10.852 141.951 10.816 142.311 10.792C143.799 10.72 144.963 10.936 145.803 11.44C146.643 11.944 147.327 12.796 147.855 13.996L151.167 23.32H151.275C151.515 22.552 151.803 21.592 152.139 20.44C152.475 19.264 152.811 18.052 153.147 16.804C153.507 15.556 153.831 14.404 154.119 13.348C154.407 12.268 154.623 11.464 154.767 10.936H156.495L161.427 23.32H161.535C161.871 22.312 162.195 21.208 162.507 20.008C162.819 18.784 163.107 17.62 163.371 16.516C163.635 15.388 163.863 14.464 164.055 13.744C164.199 13.096 164.175 12.676 163.983 12.484C163.791 12.292 163.359 12.196 162.687 12.196C162.471 12.196 162.291 12.184 162.147 12.16C162.003 12.112 161.919 11.908 161.895 11.548C161.895 11.404 161.931 11.248 162.003 11.08C162.099 10.912 162.231 10.828 162.399 10.828C163.095 10.852 163.695 10.876 164.199 10.9C164.727 10.924 165.303 10.936 165.927 10.936C166.551 10.936 167.031 10.924 167.367 10.9C167.727 10.876 168.255 10.852 168.951 10.828C169.143 10.828 169.275 10.912 169.347 11.08C169.443 11.248 169.491 11.404 169.491 11.548C169.467 11.908 169.371 12.112 169.203 12.16C169.059 12.184 168.891 12.196 168.699 12.196C167.835 12.196 167.151 12.34 166.647 12.628C166.167 12.916 165.819 13.48 165.603 14.32L161.607 27.604H159.483L154.911 15.832L151.347 27.604H149.223Z" fill="white"/>
<path d="M33.4028 27.9845C32.4742 28.0105 30.9832 28.0414 29.1537 28.0414C26.9696 28.0414 23.6367 26.2713 22 25C21.8944 24.9193 22.8568 25.6768 22.7249 25.6939C21.9609 24.7955 22.0799 25.4603 21.9984 25.5653C21.9168 25.6703 20.7418 25.1639 22.4229 26.5311C19.9255 24.5 22.5065 26.7833 22.6108 26.8656C24.4233 28.2736 26.7469 29.0489 29.1537 29.0489C30.9948 29.0489 32.4959 29.0178 33.4309 28.9917C33.497 28.9898 33.5621 28.975 33.6225 28.948C33.6829 28.921 33.7374 28.8823 33.7829 28.8342C33.8283 28.7862 33.8639 28.7296 33.8875 28.6678C33.9111 28.606 33.9223 28.5401 33.9204 28.474C33.9127 28.1959 33.6803 27.9776 33.4028 27.9845ZM4.5 20.5C4.38306 20.4354 4.62837 19.463 4.5 19.5C4.37163 19.537 3.26669 21.3396 3.20208 21.4565C2.04972 23.5427 0.98347 25.8673 0.0329531 28.366C0.00392249 28.4423 -0.00614469 28.5244 0.00361759 28.6055C0.0133799 28.6865 0.0426794 28.7639 0.0889955 28.8311C0.135312 28.8983 0.197258 28.9532 0.269505 28.9912C0.341752 29.0291 0.422137 29.049 0.503745 29.049C0.605902 29.0489 0.705637 29.0179 0.789735 28.9599C0.873834 28.9019 0.938327 28.8197 0.974671 28.7242C1.90833 26.2698 2.95456 23.9886 4.08409 21.9437C4.14865 21.8267 4.16412 21.6889 4.12709 21.5606C4.09006 21.4322 4.61695 20.5646 4.5 20.5ZM30.0829 18.4017C30.0215 18.305 29.929 18.2321 29.8206 18.195C29.7123 18.158 29.5945 18.1589 29.4868 18.1978C29.4734 18.2026 28.1255 18.6656 27.2702 18.1455C26.8599 17.896 26.6177 17.4532 26.5299 16.7918C26.5184 16.7054 26.4847 16.6235 26.4321 16.5541C26.3795 16.4846 26.3097 16.43 26.2297 16.3955C26.1497 16.3611 26.0621 16.3479 25.9755 16.3574C25.8888 16.367 25.8062 16.3988 25.7355 16.4498C25.7318 16.4525 25.3435 16.7264 24.8308 16.8625C24.1888 17.0327 23.6762 16.9149 23.2634 16.502C23.1687 16.4082 23.0408 16.3557 22.9076 16.3559C22.7744 16.3562 22.6467 16.4093 22.5525 16.5035C22.4583 16.5977 22.4052 16.7254 22.4049 16.8586C22.4046 16.9918 22.4571 17.1197 22.5509 17.2144C23.2207 17.8841 24.0984 18.0991 25.0892 17.8362C25.3101 17.7776 25.5127 17.7007 25.6871 17.6225C25.8895 18.2369 26.2443 18.7009 26.7468 19.0064C27.4188 19.4151 28.2173 19.4393 28.8334 19.3667C28.8231 19.8105 29.0135 20.269 29.401 20.6565C29.7953 21.0508 30.3367 21.2971 30.8862 21.3323C30.9312 21.3352 30.9783 21.3368 31.0273 21.3368C31.3587 21.3368 31.7768 21.262 32.2014 20.9902C32.3457 20.8979 32.8226 20.3557 32.9649 20.0626C33.2607 19.4529 33.7225 18.3159 33.8735 16.9122C34.082 14.9741 33.7154 12.1531 30.7852 9.72045C29.3593 8.53672 27.3543 7.69817 25.1394 7.3593C22.624 6.97449 19.9268 7.24344 17.3391 8.13726C17.2138 8.18162 17.1111 8.27372 17.0534 8.39347C16.9956 8.51323 16.9876 8.65094 17.031 8.77659C17.0744 8.90224 17.1657 9.00565 17.285 9.06428C17.4043 9.12291 17.5419 9.13201 17.6679 9.08959C21.4572 7.78086 26.7837 7.70805 30.1415 10.4957C32.2073 12.2107 33.1271 14.321 32.8754 16.7681C32.7977 17.5237 32.6151 18.1994 32.425 18.7366C31.9895 17.4053 31.2606 16.2499 30.2762 15.3434C29.0839 14.2454 27.5499 13.5549 25.9568 13.3991C23.0441 13.1143 20.5538 14.6021 19.6127 17.1899C18.5704 20.0562 19.1775 23.1871 21.2367 25.5653C21.5 26 21.4342 25.47 21.5 25.5C21.5658 25.53 21.5455 25.7394 21.6178 25.7393C21.7143 25.7392 21.8088 25.7114 21.89 25.6592C21.9712 25.607 22.0357 25.5326 22.0758 25.4448C22.1159 25.3569 22.7387 25.7894 22.7249 25.6939C22.7112 25.5983 22.0616 24.9787 21.9984 24.9058C21.1247 23.8967 20.5253 22.7091 20.2649 21.4714C19.9884 20.157 20.0875 18.8323 20.5596 17.5342C20.9586 16.437 21.6883 15.5678 22.6697 15.0205C23.5986 14.5026 24.7012 14.2887 25.8588 14.4018C27.2351 14.5364 28.5616 15.134 29.5937 16.0845C30.6941 17.0978 31.4293 18.4781 31.7317 20.089C31.4924 20.2639 31.2306 20.3448 30.9504 20.3269C30.642 20.3072 30.3369 20.1677 30.1133 19.9441C29.9942 19.825 29.6349 19.4068 30.0138 19.0281C30.0948 18.9471 30.1458 18.8409 30.1583 18.727C30.1709 18.6131 30.1443 18.4984 30.0829 18.4017Z" fill="white"/>
<path d="M11.4861 0C11.3376 0 11.1966 0.0654904 11.101 0.179007C10.1406 1.31773 9.26025 2.59738 8.48444 3.98242C8.42035 4.09889 8.4049 4.23598 8.44145 4.3638C8.47801 4.49162 8.56361 4.59981 8.67959 4.66479C8.79557 4.72976 8.93254 4.74626 9.06063 4.71068C9.18873 4.6751 9.29757 4.59032 9.36342 4.47484C10.0029 3.33322 10.7155 2.26731 11.4862 1.29866C15.2555 6.03297 17.4069 12.7767 17.4069 19.915C17.4069 24.4532 16.5384 28.8702 14.8909 32.7364C14.1653 32.0926 12.819 30.8554 11.8713 29.7316C11.824 29.6756 11.765 29.6305 11.6985 29.5996C11.632 29.5687 11.5595 29.5526 11.4862 29.5526C11.4128 29.5526 11.3404 29.5687 11.2739 29.5996C11.2074 29.6305 11.1484 29.6756 11.1011 29.7316C10.154 30.8546 8.80719 32.0924 8.08142 32.7364C6.43382 28.87 5.56538 24.4531 5.56538 19.915C5.56538 14.895 6.61887 10.0557 8.61186 5.92013C8.66987 5.79976 9.54409 4.12612 9.5 4C9.4559 3.87388 8.79995 4.72279 8.67959 4.66479C8.55923 4.60678 8.62612 3.95591 8.5 4C8.37387 4.0441 7.7622 5.36235 7.7042 5.48272C5.64572 9.75383 4.55771 14.7444 4.55771 19.9149C4.55771 24.8408 5.55356 29.6334 7.43774 33.7745C7.46998 33.8453 7.51819 33.9077 7.5786 33.9568C7.63901 34.0059 7.70997 34.0403 7.78591 34.0574C7.86185 34.0744 7.94071 34.0737 8.0163 34.0551C8.0919 34.0366 8.16217 34.0008 8.22161 33.9505C8.30463 33.8803 10.1048 32.3533 11.4862 30.8218C12.8674 32.3533 14.6676 33.8803 14.7507 33.9505C14.8101 34.0008 14.8804 34.0365 14.956 34.0551C15.0316 34.0736 15.1104 34.0743 15.1864 34.0573C15.2623 34.0402 15.3333 34.0058 15.3937 33.9568C15.4541 33.9077 15.5023 33.8453 15.5346 33.7745C17.4186 29.6335 18.4145 24.8409 18.4145 19.9149C18.4145 12.3032 16.0295 5.10966 11.8713 0.179007C11.824 0.122933 11.765 0.0778643 11.6985 0.0469466C11.6319 0.0160288 11.5594 7.14754e-06 11.4861 0Z" fill="white"/>
<path d="M11.5 30C11.6336 30 11.4055 29.5945 11.5 29.5C11.5945 29.4055 12 30.1336 12 30L11.9898 3.35774C11.9898 3.07952 11.7783 2 11.5 2C11.2217 2 10.9823 3.07952 10.9823 3.35774V28.4443C10.9823 28.5105 10.9747 29.9389 11 30C11.0253 30.0611 11.2465 29.4532 11.2932 29.5C11.34 29.5468 11.2321 28.8845 11.2932 28.9098C11.3544 28.9351 11.4338 30 11.5 30ZM17.8849 5.86559C17.7761 5.94215 17.702 6.05864 17.6787 6.18964C17.6555 6.32063 17.685 6.4555 17.7609 6.56482C17.8367 6.67413 17.9527 6.74901 18.0835 6.77312C18.2144 6.79723 18.3494 6.76862 18.4593 6.69352C18.4941 6.66934 21.9902 4.29422 25.7136 6.06286C25.7734 6.09125 25.8382 6.10759 25.9042 6.11095C25.9703 6.1143 26.0364 6.10461 26.0987 6.08242C26.161 6.06024 26.2184 6.02599 26.2675 5.98164C26.3165 5.93729 26.3564 5.8837 26.3848 5.82394C26.4421 5.70326 26.4491 5.56475 26.4043 5.43888C26.3595 5.31302 26.2666 5.2101 26.1459 5.15278C24.3861 4.31692 22.3999 4.17459 20.4021 4.74123C18.903 5.16635 17.9257 5.83724 17.8849 5.86559ZM17.0684 5.48715C17.1322 5.51507 17.2011 5.5295 17.2708 5.52954C17.3684 5.52968 17.4639 5.50127 17.5456 5.4478C17.6274 5.39434 17.6916 5.31815 17.7306 5.22862C17.7648 5.15386 18.6056 3.39133 21.8365 2.89535C21.9019 2.88531 21.9647 2.8625 22.0213 2.8282C22.0779 2.79391 22.1271 2.74881 22.1663 2.69547C22.2054 2.64213 22.2336 2.58161 22.2494 2.51735C22.2651 2.4531 22.2681 2.38637 22.258 2.32098C22.2158 2.04592 21.9576 1.85731 21.6837 1.89949C17.8681 2.48521 16.8502 4.72686 16.8088 4.82204C16.6975 5.07708 16.8133 5.37605 17.0684 5.48715Z" fill="white"/>
</svg>
